# xmcd
#
# Track frame offsets: 
#        150
#        31520
#        47277
#        70422
#        87617
#        105005
#        126337
#        140510
#        158222
#        176275
#        200130
#
# Disc length: 3111 seconds
#
# Revision: 5
# Processed by: cddbd v1.5.2PL0 Copyright (c) Steve Scherf et al.
# Submitted via: ExactAudioCopy v0.99pb5
#
DISCID=8c0c250b
DTITLE=Wilco - Yankee Hotel Foxtrot
DYEAR=2002
DGENRE=Rock
TTITLE0=I am trying to break your heart
TTITLE1=Kamera
TTITLE2=Radio cure
TTITLE3=War on war
TTITLE4=Jesus, etc.
TTITLE5=Ashes of American flags
TTITLE6=Heavy metal drummer
TTITLE7=I'm the man who loves you
TTITLE8=Pot kettle black
TTITLE9=Poor places
TTITLE10=Reservations
EXTD=
EXTT0=
EXTT1=
EXTT2=
EXTT3=
EXTT4=
EXTT5=
EXTT6=
EXTT7=
EXTT8=
EXTT9=
EXTT10=
PLAYORDER=
